<svg width="889" height="596" viewBox="0 0 889 596" fill="none" xmlns="http://www.w3.org/2000/svg">
<g clip-path="url(#clip0_1521_774)">
<path d="M458.265 941L591.87 932.472L589.943 874.198L539.862 870.645C533.214 903.378 495.083 922.06 477.453 925.365C459.26 928.777 457.081 937.21 458.265 941Z" fill="black"/>
<path d="M589.027 846.483C571.498 843.166 536.438 836.96 536.438 838.665C541.07 850.485 541.789 861.155 539.862 870.645L589.943 874.198L589.027 846.483Z" fill="white"/>
<path d="M589.027 846.483C571.498 843.166 536.438 836.96 536.438 838.665L589.52 861.407L589.027 846.483Z" fill="#241715"/>
<path d="M387.457 438.674C311.494 481.449 354.27 586.913 379.345 591.338C398.658 594.746 462.149 592.792 492.921 591.338L731.134 415.074L591.745 395.899C548.97 395.899 448.228 404.454 387.457 438.674Z" fill="white"/>
<path d="M408.106 453.152C460.616 443.122 503.244 473.965 517.994 490.64C520.458 487.195 523.122 483.789 525.998 480.44C521.464 460.527 433.181 439.139 408.106 453.152Z" fill="#000001"/>
<path d="M487.596 593.52C489.46 593.439 491.239 593.358 492.92 593.278L687.486 449.312C678.915 446.413 656.823 437.494 637.029 425.009C502.733 440.923 481.451 543.98 487.596 593.52Z" fill="#0E1729"/>
<path d="M709.745 593.277C806.357 562.302 731.132 422.176 731.132 417.014L694.994 412.042C510.913 423.405 483.576 537.6 492.918 593.277L523.984 849.191H604.037L610.919 593.277H709.745Z" fill="white"/>
<path d="M604.654 826.245H521.198L519.314 810.72H604.654V826.245Z" fill="#0E1729"/>
<path d="M605.633 789.857H516.781L515.191 776.758H605.985L605.633 789.857Z" fill="#0E1729"/>
<path d="M591.745 540.178C603.545 551.978 609.446 580.495 610.921 593.278H621.983C619.033 578.774 608.855 547.848 591.745 540.178Z" fill="#000001"/>
<path d="M94 593H890V596H94V593Z" fill="black"/>
<path d="M606.714 146.088C602.83 141.143 592.73 125.958 583.407 104.77C585.526 102.297 589.551 94.8104 588.704 84.6398C577.686 82.9447 571.009 59.2134 569.048 47.5596C583.679 39.4435 571.212 17.7929 575.991 16.8366C581.288 15.7766 595.061 21.0738 595.061 34.8464C595.061 48.619 618.657 42.118 624.725 39.0841C639.556 31.6681 634.26 49.6796 627.903 66.63C624.513 72.5628 636.378 83.934 642.734 88.8781C644.429 105.829 629.315 131.962 621.546 142.909C622.606 174.692 622.818 238.258 615.19 238.258C610.105 228.088 607.421 172.573 606.714 146.088Z" fill="white"/>
<path d="M587.572 96.2916C588.506 93.0569 589.075 89.1066 588.702 84.6382C594.573 87.817 604.592 88.8765 625.781 74.0434C626.627 85.0616 600.661 93.4664 587.572 96.2916Z" fill="black"/>
<path d="M641.674 16.8356C649.09 34.846 632.139 59.213 627.901 66.629C634.258 49.6786 638.495 31.6671 624.723 39.0832C618.75 42.2994 595.059 48.6181 595.059 34.8454C595.059 21.0728 581.286 15.7756 575.989 16.8356C571.21 17.7919 583.677 39.4426 569.047 47.5587C567.46 48.4386 565.556 49.1594 563.276 49.6775C568.573 42.2615 566.454 43.3209 562.216 25.3105C557.979 7.30016 577.049 3.06296 595.059 0.944096C613.069 -1.17477 634.258 -1.17477 641.674 16.8356Z" fill="black"/>
<path d="M741.26 131.256C727.699 113.457 669.924 95.5883 642.732 88.8785C644.427 105.829 629.313 131.962 621.544 142.91C622.604 174.693 622.815 238.259 615.188 238.259C610.102 228.088 607.418 172.574 606.712 146.088C602.827 141.144 592.728 125.959 583.405 104.77C581.286 111.127 524.076 154.563 514.541 168.336C505.006 182.109 501.828 314.538 501.828 326.192C501.828 337.846 497.59 417.303 532.552 417.303C560.521 417.303 674.869 421.188 732.784 422.6C741.26 332.901 754.82 149.054 741.26 131.256Z" fill="black"/>
<path d="M615.823 415.56L610.617 376.847C598.777 378.995 574.119 381.076 555.071 382.881C535.13 384.771 530.105 395.241 543.49 398.585C536.489 397.711 528.65 407.364 539.822 411.686C531.627 414.597 547.836 417.845 555.782 417.861C551.234 418.548 543.349 419.815 544.421 424.634C545.493 429.452 592.469 420.592 615.823 415.56Z" fill="white"/>
<path d="M615.824 415.561L610.617 376.848C607.863 377.348 604.415 377.844 600.505 378.334L588.66 420.952C598.612 419.142 608.409 417.159 615.824 415.561Z" fill="black"/>
<path d="M772.692 381.565C775.255 340.991 778.054 136.522 732.286 125.5C679.382 112.759 680.076 307.755 703.043 352.24L595.016 363.222L605.152 430.623C657.673 426.955 768.449 448.703 772.692 381.565Z" fill="black"/>
<path d="M309.324 279.458H491.26C494.447 279.458 497.311 281.407 498.481 284.372L552.515 421.342C553.685 424.307 556.548 426.256 559.736 426.256H701.251C703.854 426.256 705.964 428.366 705.964 430.969C705.964 433.573 703.854 435.683 701.251 435.683H365.118C361.935 435.683 359.075 433.74 357.902 430.782L302.107 290.082C300.087 284.986 303.842 279.458 309.324 279.458Z" fill="white"/>
<path d="M497.651 282.129L555.952 422.522C556.69 424.299 555.384 426.256 553.46 426.256V426.256C550.326 426.256 547.499 424.371 546.294 421.477L489.65 285.456C488.462 282.603 490.559 279.458 493.65 279.458C495.401 279.458 496.98 280.512 497.651 282.129Z" fill="black"/>
<path d="M357.902 430.782L302.107 290.082C300.087 284.986 303.842 279.458 309.324 279.458H323.352C324.507 279.458 325.643 279.716 326.692 280.199C331.658 282.486 339.954 286.082 353.731 293.043C399.822 316.331 405.644 365.818 395.941 390.077C388.074 409.743 492.053 430.071 532.905 435.683H365.118C361.935 435.683 359.075 433.74 357.902 430.782Z" fill="black"/>
<path d="M409.862 348.566C412.444 355.448 419.388 359.208 425.373 356.964C431.358 354.719 434.117 347.32 431.536 340.437C428.954 333.555 422.01 329.795 416.025 332.039C410.04 334.284 407.281 341.683 409.862 348.566Z" fill="black"/>
</g>
<defs>
<clipPath id="clip0_1521_774">
<rect width="889" height="596" fill="white"/>
</clipPath>
</defs>
</svg>
